# xmcd CD database file
#
# Track frame offsets:
#	150
#	49187
#	86900
#	106875
#	111649
#	143723
#	153682
#	162157
#	177103
#	209244
#
# Disc length: 4046 seconds
#
# Revision: 0
# Processed by: cddbd v1.5.1PL2 Copyright (c) Steve Scherf et al.
# Submitted via: CDex 1.51
#
DISCID=930fcc0a
DTITLE=le pom - estramadure
DYEAR=1998
DGENRE=Jazz
TTITLE0=Estramadure
TTITLE1=Lève-toi et joue
TTITLE2=La ballade de menship freetings
TTITLE3=Double messieurs
TTITLE4=Peut-être demain
TTITLE5=Libre et change
TTITLE6=La grande roue
TTITLE7=Equilibre indifférent
TTITLE8=Passeurs de sons
TTITLE9=POM'Roll 98
EXTD=YEAR: 1998
EXTT0=
EXTT1=
EXTT2=
EXTT3=
EXTT4=
EXTT5=
EXTT6=
EXTT7=
EXTT8=
EXTT9=
PLAYORDER=
